<svg xmlns="http://www.w3.org/2000/svg" viewBox="0 0 1040 500" role="img" aria-label="衍复兴泰中证全指1号净值走势">
<rect width="1040" height="500" rx="12" fill="#ffffff"/>
<style>.title{font:850 24px Arial,"Microsoft YaHei",sans-serif;fill:#075f96}.axis{font:700 13px Arial,"Microsoft YaHei",sans-serif;fill:#66768b}.tick{font:600 12px Arial,"Microsoft YaHei",sans-serif;fill:#7a8798}.legend{font:700 13px Arial,"Microsoft YaHei",sans-serif;fill:#536176}.grid{stroke:#dfe8f3;stroke-width:1}.axisline{stroke:#a9b5c5;stroke-width:1.6}.unit{stroke:#075f96;stroke-width:3.4;fill:none;stroke-linecap:round;stroke-linejoin:round}.cum{stroke:#9bd7f6;stroke-width:3.4;fill:none;stroke-linecap:round;stroke-linejoin:round}.scale{fill:#d8dde3;opacity:.68}.scaleLine{stroke:#c1c7d0;stroke-width:2;fill:none}.note{font:600 11px Arial,"Microsoft YaHei",sans-serif;fill:#8a96a6}</style>
<text x="30" y="38" class="title">衍复兴泰中证全指1号净值走势</text>
<text x="58" y="61" class="axis">净值</text>
<text x="845" y="61" class="axis">资产规模（亿元）</text>
<line x1="385" y1="34" x2="420" y2="34" class="unit"/><text x="430" y="39" class="legend">单位净值</text>
<line x1="535" y1="34" x2="570" y2="34" class="cum"/><text x="580" y="39" class="legend">累计净值</text>
<rect x="695" y="28" width="30" height="12" class="scale"/><text x="735" y="39" class="legend">资产规模（亿元）</text>
<line x1="70" y1="395.0" x2="955" y2="395.0" class="grid"/>
<text x="58" y="399.0" text-anchor="end" class="tick">0.8</text>
<line x1="70" y1="313.8" x2="955" y2="313.8" class="grid"/>
<text x="58" y="317.8" text-anchor="end" class="tick">1</text>
<line x1="70" y1="232.5" x2="955" y2="232.5" class="grid"/>
<text x="58" y="236.5" text-anchor="end" class="tick">1.2</text>
<line x1="70" y1="151.3" x2="955" y2="151.3" class="grid"/>
<text x="58" y="155.3" text-anchor="end" class="tick">1.4</text>
<line x1="70" y1="70.0" x2="955" y2="70.0" class="grid"/>
<text x="58" y="74.0" text-anchor="end" class="tick">1.6</text>
<line x1="70" y1="395" x2="955" y2="395" class="axisline"/>
<line x1="70" y1="70" x2="70" y2="395" class="axisline"/>
<line x1="955" y1="70" x2="955" y2="395" class="axisline"/>
<text x="971" y="399.0" class="tick">0</text>
<text x="971" y="299.0" class="tick">2</text>
<text x="971" y="199.0" class="tick">4</text>
<text x="971" y="99.0" class="tick">6</text>
<polygon points="70,395 70.0,272.5 84.3,271.0 98.5,269.0 112.8,270.0 127.1,273.0 141.4,272.0 155.6,271.0 169.9,270.0 184.2,269.5 198.5,269.0 212.7,269.0 227.0,267.5 241.3,268.0 255.6,266.0 269.8,262.5 284.1,261.0 298.4,259.0 312.7,257.5 326.9,254.0 341.2,256.0 355.5,255.0 369.8,251.0 384.0,247.5 398.3,244.0 412.6,240.0 426.9,236.0 441.1,234.0 455.4,232.5 469.7,230.0 484.0,227.5 498.2,224.0 512.5,222.5 526.8,220.0 541.0,219.0 555.3,217.5 569.6,217.0 583.9,216.0 598.1,215.0 612.4,214.0 626.7,221.0 641.0,220.0 655.2,218.5 669.5,216.0 683.8,214.0 698.1,215.0 712.3,216.5 726.6,217.5 740.9,219.0 755.2,220.0 769.4,221.0 783.7,222.5 798.0,223.5 812.3,225.0 826.5,227.5 840.8,224.0 855.1,226.0 869.4,227.0 883.6,227.5 897.9,228.5 912.2,230.0 926.5,231.0 940.7,225.0 955.0,227.5 955,395" class="scale"/>
<polyline points="70.0,272.5 84.3,271.0 98.5,269.0 112.8,270.0 127.1,273.0 141.4,272.0 155.6,271.0 169.9,270.0 184.2,269.5 198.5,269.0 212.7,269.0 227.0,267.5 241.3,268.0 255.6,266.0 269.8,262.5 284.1,261.0 298.4,259.0 312.7,257.5 326.9,254.0 341.2,256.0 355.5,255.0 369.8,251.0 384.0,247.5 398.3,244.0 412.6,240.0 426.9,236.0 441.1,234.0 455.4,232.5 469.7,230.0 484.0,227.5 498.2,224.0 512.5,222.5 526.8,220.0 541.0,219.0 555.3,217.5 569.6,217.0 583.9,216.0 598.1,215.0 612.4,214.0 626.7,221.0 641.0,220.0 655.2,218.5 669.5,216.0 683.8,214.0 698.1,215.0 712.3,216.5 726.6,217.5 740.9,219.0 755.2,220.0 769.4,221.0 783.7,222.5 798.0,223.5 812.3,225.0 826.5,227.5 840.8,224.0 855.1,226.0 869.4,227.0 883.6,227.5 897.9,228.5 912.2,230.0 926.5,231.0 940.7,225.0 955.0,227.5" class="scaleLine"/>
<polyline points="70.0,313.8 84.3,313.8 98.5,321.9 112.8,325.9 127.1,330.0 141.4,346.2 155.6,342.2 169.9,338.1 184.2,330.0 198.5,325.9 212.7,330.0 227.0,330.0 241.3,321.9 255.6,321.9 269.8,325.9 284.1,309.7 298.4,301.6 312.7,293.4 326.9,281.2 341.2,277.2 355.5,281.2 369.8,265.0 384.0,240.6 398.3,232.5 412.6,240.6 426.9,232.5 441.1,232.5 455.4,228.4 469.7,216.3 484.0,216.3 498.2,232.5 512.5,212.2 526.8,208.1 541.0,204.1 555.3,224.4 569.6,212.2 583.9,208.1 598.1,204.1 612.4,200.0 626.7,191.9 641.0,191.9 655.2,191.9 669.5,171.6 683.8,167.5 698.1,155.3 712.3,159.4 726.6,163.4 740.9,155.3 755.2,147.2 769.4,151.3 783.7,151.3 798.0,171.6 812.3,175.6 826.5,143.1 840.8,139.1 855.1,126.9 869.4,110.6 883.6,114.7 897.9,110.6 912.2,118.8 926.5,122.8 940.7,102.5 955.0,110.6" class="cum"/>
<polyline points="70.0,313.8 84.3,313.8 98.5,321.9 112.8,325.9 127.1,330.0 141.4,346.2 155.6,342.2 169.9,338.1 184.2,330.0 198.5,325.9 212.7,330.0 227.0,330.0 241.3,321.9 255.6,321.9 269.8,325.9 284.1,309.7 298.4,301.6 312.7,293.4 326.9,281.2 341.2,277.2 355.5,281.2 369.8,265.0 384.0,240.6 398.3,232.5 412.6,240.6 426.9,232.5 441.1,232.5 455.4,228.4 469.7,216.3 484.0,216.3 498.2,232.5 512.5,212.2 526.8,208.1 541.0,204.1 555.3,224.4 569.6,212.2 583.9,208.1 598.1,204.1 612.4,200.0 626.7,191.9 641.0,281.2 655.2,260.9 669.5,252.8 683.8,244.7 698.1,252.8 712.3,256.9 726.6,248.8 740.9,240.6 755.2,232.5 769.4,244.7 783.7,244.7 798.0,265.0 812.3,269.1 826.5,232.5 840.8,224.4 855.1,212.2 869.4,204.1 883.6,208.1 897.9,204.1 912.2,212.2 926.5,220.3 940.7,195.9 955.0,204.1" class="unit"/>
<text x="70.0" y="423" text-anchor="middle" class="tick">2025-02-28</text>
<text x="184.2" y="423" text-anchor="middle" class="tick">2025-05-01</text>
<text x="384.0" y="423" text-anchor="middle" class="tick">2025-08-01</text>
<text x="555.3" y="423" text-anchor="middle" class="tick">2025-11-01</text>
<text x="726.6" y="423" text-anchor="middle" class="tick">2026-02-01</text>
<text x="869.4" y="423" text-anchor="middle" class="tick">2026-05-01</text>
<text x="955.0" y="423" text-anchor="middle" class="tick">2026-06-26</text>
</svg>
