<svg xmlns="http://www.w3.org/2000/svg" viewBox="0 0 1180 620">
<rect width="1180" height="620" rx="18" fill="#ffffff"/>
<style>.t{font:700 24px Arial,"Microsoft YaHei",sans-serif;fill:#164a8b}.s{font:600 14px Arial,"Microsoft YaHei",sans-serif;fill:#6b778c}.a{stroke:#dfe9f5;stroke-width:1}.zero{stroke:#90a4b8;stroke-width:2}.pos{fill:#d45a63}.neg{fill:#48a77a}.idx{fill:#8bb5ea}.ex{stroke:#b58a2a;stroke-width:3;fill:none}.dot{fill:#b58a2a;stroke:#fff;stroke-width:3}.val{font:600 11px Arial,"Microsoft YaHei",sans-serif;fill:#334155}.x{font:600 13px Arial,"Microsoft YaHei",sans-serif;fill:#748196}.legend{font:700 15px Arial,"Microsoft YaHei",sans-serif;fill:#526070}</style>
<text x="32" y="38" class="t">建仓以来月度表现</text>
<rect x="760" y="22" width="18" height="12" class="pos"/><text x="786" y="34" class="legend">产品收益</text><line x1="890" y1="28" x2="930" y2="28" class="ex"/><circle cx="910" cy="28" r="5" class="dot"/><text x="940" y="34" class="legend">超额收益</text><rect x="1040" y="22" width="18" height="12" class="idx"/><text x="1066" y="34" class="legend">指数收益</text>
<text x="32" y="66" class="s">上图：产品收益为柱、超额收益为折线；下图：中证全指收益参照。区间：2025/03/18-2026/06/26｜复权净值口径。</text>
<line x1="70" y1="330.0" x2="1140" y2="330.0" class="a"/>
<text x="28" y="334.0" class="x">-9%</text>
<line x1="70" y1="301.7" x2="1140" y2="301.7" class="a"/>
<text x="28" y="305.7" class="x">-6%</text>
<line x1="70" y1="273.3" x2="1140" y2="273.3" class="a"/>
<text x="28" y="277.3" class="x">-3%</text>
<line x1="70" y1="245.0" x2="1140" y2="245.0" class="a"/>
<text x="28" y="249.0" class="x">0%</text>
<line x1="70" y1="204.2" x2="1140" y2="204.2" class="a"/>
<text x="28" y="208.2" class="x">3%</text>
<line x1="70" y1="163.5" x2="1140" y2="163.5" class="a"/>
<text x="28" y="167.5" class="x">6%</text>
<line x1="70" y1="122.8" x2="1140" y2="122.8" class="a"/>
<text x="28" y="126.8" class="x">9%</text>
<line x1="70" y1="82.0" x2="1140" y2="82.0" class="a"/>
<text x="28" y="86.0" class="x">12%</text>
<line x1="70" y1="245" x2="1140" y2="245" class="zero"/>
<rect x="57.0" y="245.0" width="26" height="34.8" rx="4" class="neg"/>
<text x="70.0" y="295.8" text-anchor="middle" class="val">-3.68%</text>
<rect x="128.3" y="245.0" width="26" height="18.0" rx="4" class="neg"/>
<text x="141.3" y="279.0" text-anchor="middle" class="val">-1.91%</text>
<rect x="199.7" y="209.0" width="26" height="36.0" rx="4" class="pos"/>
<text x="212.7" y="203.0" text-anchor="middle" class="val">+2.65%</text>
<rect x="271.0" y="174.2" width="26" height="70.8" rx="4" class="pos"/>
<text x="284.0" y="168.2" text-anchor="middle" class="val">+5.21%</text>
<rect x="342.3" y="160.5" width="26" height="84.5" rx="4" class="pos"/>
<text x="355.3" y="154.5" text-anchor="middle" class="val">+6.22%</text>
<rect x="413.7" y="100.9" width="26" height="144.1" rx="4" class="pos"/>
<text x="426.7" y="94.9" text-anchor="middle" class="val">+10.61%</text>
<rect x="485.0" y="205.1" width="26" height="39.9" rx="4" class="pos"/>
<text x="498.0" y="199.1" text-anchor="middle" class="val">+2.94%</text>
<rect x="556.3" y="222.6" width="26" height="22.4" rx="4" class="pos"/>
<text x="569.3" y="216.6" text-anchor="middle" class="val">+1.65%</text>
<rect x="627.7" y="245.0" width="26" height="3.5" rx="4" class="neg"/>
<text x="640.7" y="264.5" text-anchor="middle" class="val">-0.37%</text>
<rect x="699.0" y="185.4" width="26" height="59.6" rx="4" class="pos"/>
<text x="712.0" y="179.4" text-anchor="middle" class="val">+4.39%</text>
<rect x="770.3" y="151.7" width="26" height="93.3" rx="4" class="pos"/>
<text x="783.3" y="145.7" text-anchor="middle" class="val">+6.87%</text>
<rect x="841.7" y="199.1" width="26" height="45.9" rx="4" class="pos"/>
<text x="854.7" y="193.1" text-anchor="middle" class="val">+3.38%</text>
<rect x="913.0" y="245.0" width="26" height="61.3" rx="4" class="neg"/>
<text x="926.0" y="322.3" text-anchor="middle" class="val">-6.49%</text>
<rect x="984.3" y="101.8" width="26" height="143.2" rx="4" class="pos"/>
<text x="997.3" y="95.8" text-anchor="middle" class="val">+10.54%</text>
<rect x="1055.7" y="221.8" width="26" height="23.2" rx="4" class="pos"/>
<text x="1068.7" y="215.8" text-anchor="middle" class="val">+1.71%</text>
<rect x="1127.0" y="220.8" width="26" height="24.2" rx="4" class="pos"/>
<text x="1140.0" y="214.8" text-anchor="middle" class="val">+1.78%</text>
<polyline points="70.0,232.1 141.3,225.8 212.7,237.5 284.0,228.3 355.3,219.3 426.7,246.2 498.0,241.1 569.3,220.6 640.7,219.1 712.0,229.5 783.3,229.8 854.7,229.4 926.0,215.1 997.3,218.1 1068.7,227.5 1140.0,227.7" class="ex"/>
<circle cx="70.0" cy="232.1" r="5" class="dot"/>
<circle cx="141.3" cy="225.8" r="5" class="dot"/>
<circle cx="212.7" cy="237.5" r="5" class="dot"/>
<circle cx="284.0" cy="228.3" r="5" class="dot"/>
<circle cx="355.3" cy="219.3" r="5" class="dot"/>
<circle cx="426.7" cy="246.2" r="5" class="dot"/>
<circle cx="498.0" cy="241.1" r="5" class="dot"/>
<circle cx="569.3" cy="220.6" r="5" class="dot"/>
<circle cx="640.7" cy="219.1" r="5" class="dot"/>
<circle cx="712.0" cy="229.5" r="5" class="dot"/>
<circle cx="783.3" cy="229.8" r="5" class="dot"/>
<circle cx="854.7" cy="229.4" r="5" class="dot"/>
<circle cx="926.0" cy="215.1" r="5" class="dot"/>
<circle cx="997.3" cy="218.1" r="5" class="dot"/>
<circle cx="1068.7" cy="227.5" r="5" class="dot"/>
<circle cx="1140.0" cy="227.7" r="5" class="dot"/>
<text x="32" y="382" class="t">中证全指收益参照</text>
<line x1="70" y1="585.0" x2="1140" y2="585.0" class="a"/>
<text x="28" y="589.0" class="x">-9%</text>
<line x1="70" y1="556.7" x2="1140" y2="556.7" class="a"/>
<text x="28" y="560.7" class="x">-6%</text>
<line x1="70" y1="528.3" x2="1140" y2="528.3" class="a"/>
<text x="28" y="532.3" class="x">-3%</text>
<line x1="70" y1="500.0" x2="1140" y2="500.0" class="a"/>
<text x="28" y="504.0" class="x">0%</text>
<line x1="70" y1="477.5" x2="1140" y2="477.5" class="a"/>
<text x="28" y="481.5" class="x">3%</text>
<line x1="70" y1="455.0" x2="1140" y2="455.0" class="a"/>
<text x="28" y="459.0" class="x">6%</text>
<line x1="70" y1="432.5" x2="1140" y2="432.5" class="a"/>
<text x="28" y="436.5" class="x">9%</text>
<line x1="70" y1="410.0" x2="1140" y2="410.0" class="a"/>
<text x="28" y="414.0" class="x">12%</text>
<line x1="70" y1="500" x2="1140" y2="500" class="zero"/>
<rect x="57.0" y="500.0" width="26" height="43.7" rx="4" class="idx"/>
<text x="70.0" y="559.7" text-anchor="middle" class="val">-4.63%</text>
<rect x="128.3" y="500.0" width="26" height="31.4" rx="4" class="idx"/>
<text x="141.3" y="547.4" text-anchor="middle" class="val">-3.32%</text>
<rect x="199.7" y="484.2" width="26" height="15.8" rx="4" class="idx"/>
<text x="212.7" y="478.2" text-anchor="middle" class="val">+2.10%</text>
<rect x="271.0" y="470.1" width="26" height="29.9" rx="4" class="idx"/>
<text x="284.0" y="464.1" text-anchor="middle" class="val">+3.98%</text>
<rect x="342.3" y="467.5" width="26" height="32.5" rx="4" class="idx"/>
<text x="355.3" y="461.5" text-anchor="middle" class="val">+4.33%</text>
<rect x="413.7" y="419.4" width="26" height="80.6" rx="4" class="idx"/>
<text x="426.7" y="413.4" text-anchor="middle" class="val">+10.74%</text>
<rect x="485.0" y="480.1" width="26" height="19.9" rx="4" class="idx"/>
<text x="498.0" y="474.1" text-anchor="middle" class="val">+2.65%</text>
<rect x="556.3" y="500.0" width="26" height="2.0" rx="4" class="idx"/>
<text x="569.3" y="517.4" text-anchor="middle" class="val">-0.15%</text>
<rect x="627.7" y="500.0" width="26" height="21.5" rx="4" class="idx"/>
<text x="640.7" y="537.5" text-anchor="middle" class="val">-2.28%</text>
<rect x="699.0" y="475.6" width="26" height="24.4" rx="4" class="idx"/>
<text x="712.0" y="469.6" text-anchor="middle" class="val">+3.25%</text>
<rect x="770.3" y="456.9" width="26" height="43.1" rx="4" class="idx"/>
<text x="783.3" y="450.9" text-anchor="middle" class="val">+5.75%</text>
<rect x="841.7" y="483.3" width="26" height="16.7" rx="4" class="idx"/>
<text x="854.7" y="477.3" text-anchor="middle" class="val">+2.23%</text>
<rect x="913.0" y="500.0" width="26" height="82.1" rx="4" class="idx"/>
<text x="926.0" y="598.1" text-anchor="middle" class="val">-8.69%</text>
<rect x="984.3" y="435.8" width="26" height="64.2" rx="4" class="idx"/>
<text x="997.3" y="429.8" text-anchor="middle" class="val">+8.56%</text>
<rect x="1055.7" y="496.9" width="26" height="3.1" rx="4" class="idx"/>
<text x="1068.7" y="490.9" text-anchor="middle" class="val">+0.42%</text>
<rect x="1127.0" y="496.2" width="26" height="3.8" rx="4" class="idx"/>
<text x="1140.0" y="490.2" text-anchor="middle" class="val">+0.51%</text>
<text x="70.0" y="608" text-anchor="middle" class="x">25-03</text>
<text x="141.3" y="608" text-anchor="middle" class="x">25-04</text>
<text x="212.7" y="608" text-anchor="middle" class="x">25-05</text>
<text x="284.0" y="608" text-anchor="middle" class="x">25-06</text>
<text x="355.3" y="608" text-anchor="middle" class="x">25-07</text>
<text x="426.7" y="608" text-anchor="middle" class="x">25-08</text>
<text x="498.0" y="608" text-anchor="middle" class="x">25-09</text>
<text x="569.3" y="608" text-anchor="middle" class="x">25-10</text>
<text x="640.7" y="608" text-anchor="middle" class="x">25-11</text>
<text x="712.0" y="608" text-anchor="middle" class="x">25-12</text>
<text x="783.3" y="608" text-anchor="middle" class="x">26-01</text>
<text x="854.7" y="608" text-anchor="middle" class="x">26-02</text>
<text x="926.0" y="608" text-anchor="middle" class="x">26-03</text>
<text x="997.3" y="608" text-anchor="middle" class="x">26-04</text>
<text x="1068.7" y="608" text-anchor="middle" class="x">26-05</text>
<text x="1140.0" y="608" text-anchor="middle" class="x">26-06</text>
</svg>
