<svg xmlns="http://www.w3.org/2000/svg" viewBox="0 0 1180 570" role="img" aria-label="衍复兴泰中证全指1号净值走势">
<rect width="1180" height="570" rx="18" fill="#ffffff"/>
<style>
.title{font:850 28px Arial,"Microsoft YaHei",sans-serif;fill:#075f96}
.axis{font:700 17px Arial,"Microsoft YaHei",sans-serif;fill:#6d7786}
.tick{font:600 15px Arial,"Microsoft YaHei",sans-serif;fill:#828a96}
.date{font-size:16px}
.legend{font:700 16px Arial,"Microsoft YaHei",sans-serif;fill:#505b69}
.grid{stroke:#d9d9d9;stroke-width:1.2}
.axisline{stroke:#b9b9b9;stroke-width:1.4}
.scale{fill:#dfe3e8;opacity:.78}
.product{stroke:#075f96;stroke-width:4.2;fill:none;stroke-linecap:round;stroke-linejoin:round}
.unit{stroke:#075f96;stroke-width:4.2;fill:none;stroke-linecap:round;stroke-linejoin:round}
.cum{stroke:#9bd7f6;stroke-width:4.0;fill:none;stroke-linecap:round;stroke-linejoin:round}
.index{stroke:#9bd7f6;stroke-width:4.0;fill:none;stroke-linecap:round;stroke-linejoin:round}
.excess{stroke:#d50012;stroke-width:3.6;fill:none;stroke-linecap:round;stroke-linejoin:round}
</style>
<text x="32" y="44" class="title">衍复兴泰中证全指1号净值走势</text>
<text x="28" y="260" class="axis" transform="rotate(-90 28 260)">净值</text>
<line x1="92" y1="74.0" x2="1110" y2="74.0" class="grid"/><text x="74" y="79.0" text-anchor="end" class="tick">1.6</text><line x1="92" y1="116.6" x2="1110" y2="116.6" class="grid"/><text x="74" y="121.6" text-anchor="end" class="tick">1.5</text><line x1="92" y1="223.2" x2="1110" y2="223.2" class="grid"/><text x="74" y="228.2" text-anchor="end" class="tick">1.25</text><line x1="92" y1="329.8" x2="1110" y2="329.8" class="grid"/><text x="74" y="334.8" text-anchor="end" class="tick">1</text>
<line x1="92" y1="415" x2="1110" y2="415" class="axisline"/>
<line x1="92" y1="74.0" x2="92" y2="415" class="axisline"/>
<line x1="1110" y1="74.0" x2="1110" y2="415" class="axisline"/>
<text x="1130" y="420" class="tick">0</text><text x="1130" y="306.3" class="tick">2</text><text x="1130" y="192.7" class="tick">4</text><text x="1130" y="79" class="tick">6</text>
<text x="1168" y="250" class="axis" transform="rotate(90 1168 250)">资产规模（亿元）</text>
<line x1="92.0" y1="415" x2="92.0" y2="423" class="axisline"/><text x="92.0" y="447" text-anchor="middle" class="tick date">2025-02-28</text><line x1="230.0" y1="415" x2="230.0" y2="423" class="axisline"/><text x="230.0" y="447" text-anchor="middle" class="tick date">2025-05-01</text><line x1="437.1" y1="415" x2="437.1" y2="423" class="axisline"/><text x="437.1" y="447" text-anchor="middle" class="tick date">2025-08-01</text><line x1="644.1" y1="415" x2="644.1" y2="423" class="axisline"/><text x="644.1" y="447" text-anchor="middle" class="tick date">2025-11-01</text><line x1="833.9" y1="415" x2="833.9" y2="423" class="axisline"/><text x="833.9" y="447" text-anchor="middle" class="tick date">2026-02-01</text><line x1="1023.7" y1="415" x2="1023.7" y2="423" class="axisline"/><text x="1023.7" y="447" text-anchor="middle" class="tick date">2026-05-01</text><line x1="1110.0" y1="415" x2="1110.0" y2="423" class="axisline"/><text x="1110.0" y="447" text-anchor="middle" class="tick date">2026-06-26</text>
<polygon points="92,415 92.0,290.0 109.3,285.4 126.5,291.7 143.8,294.3 161.0,291.2 178.3,290.4 195.5,296.6 212.8,302.8 230.0,298.4 247.3,289.5 264.5,285.7 281.8,287.9 299.1,287.4 316.3,280.8 333.6,275.6 350.8,278.5 368.1,283.9 385.3,282.6 402.6,275.4 419.8,271.6 437.1,273.7 454.3,274.0 471.6,267.6 488.8,260.9 506.1,261.9 523.4,267.7 540.6,268.6 557.9,263.4 575.1,260.2 592.4,263.3 609.6,265.6 626.9,260.2 644.1,251.8 661.4,250.0 678.6,254.3 695.9,255.7 713.2,252.2 730.4,250.8 747.7,256.4 764.9,262.9 782.2,261.8 799.4,255.6 816.7,253.8 833.9,258.7 851.2,262.3 868.4,259.5 885.7,257.0 902.9,262.1 920.2,270.5 937.5,272.7 954.7,267.4 972.0,263.1 989.2,265.2 1006.5,266.5 1023.7,260.9 1041.0,253.9 1058.2,254.1 1075.5,260.0 1092.7,261.8 1110.0,255.9 1110,415" class="scale"/>
<polyline points="92.0,329.8 109.3,329.5 126.5,342.1 143.8,360.8 161.0,365.0 178.3,354.7 195.5,351.2 212.8,358.7 230.0,362.9 247.3,353.4 264.5,338.6 281.8,333.5 299.1,335.9 316.3,331.2 333.6,317.3 350.8,308.7 368.1,312.2 385.3,316.0 402.6,307.1 419.8,291.3 437.1,283.7 454.3,284.6 471.6,278.7 488.8,261.6 506.1,246.8 523.4,245.6 540.6,249.4 557.9,242.9 575.1,229.4 592.4,225.6 609.6,231.4 626.9,232.8 644.1,221.1 661.4,233.1 678.6,278.2 695.9,289.6 713.2,281.8 730.4,265.0 747.7,256.7 764.9,269.8 782.2,281.5 799.4,279.5 816.7,271.9 833.9,267.7 851.2,266.5 868.4,259.6 885.7,242.8 902.9,229.5 920.2,229.3 937.5,235.9 954.7,232.9 972.0,221.6 989.2,217.3 1006.5,222.4 1023.7,229.0 1041.0,224.8 1058.2,221.2 1075.5,226.0 1092.7,228.3 1110.0,214.6" class="unit"/><polyline points="92.0,329.8 109.3,327.7 126.5,346.4 143.8,362.8 161.0,361.2 178.3,352.3 195.5,356.1 212.8,365.3 230.0,362.4 247.3,347.2 264.5,335.9 281.8,336.7 299.1,337.6 316.3,326.6 333.6,312.7 350.8,311.8 368.1,317.1 385.3,312.1 402.6,293.3 419.8,275.7 437.1,270.4 454.3,266.8 471.6,255.4 488.8,239.3 506.1,234.6 523.4,242.8 540.6,246.8 557.9,237.4 575.1,226.6 592.4,226.5 609.6,230.1 626.9,221.2 644.1,202.2 661.4,192.6 678.6,198.6 695.9,197.7 713.2,182.7 730.4,165.0 747.7,162.8 764.9,178.6 782.2,183.7 799.4,175.4 816.7,170.4 833.9,172.2 851.2,169.7 868.4,155.8 885.7,137.3 902.9,130.5 920.2,134.7 937.5,136.5 954.7,126.6 972.0,116.2 989.2,117.9 1006.5,123.2 1023.7,121.8 1041.0,113.3 1058.2,114.7 1075.5,126.8 1092.7,130.6 1110.0,116.5" class="cum"/>
<line x1="310" y1="468" x2="342" y2="468" class="unit"/><text x="356" y="474" class="legend">单位净值</text><line x1="540" y1="468" x2="572" y2="468" class="cum"/><text x="586" y="474" class="legend">累计净值</text><line x1="770" y1="468" x2="802" y2="468" class="scale"/><text x="816" y="474" class="legend">资产规模（亿元）</text>
</svg>
